<?xml version="1.0" encoding="UTF-8"?>
<svg xmlns="http://www.w3.org/2000/svg" xmlns:xlink="http://www.w3.org/1999/xlink" viewBox="0 0 760 100">
  <defs>
    <style>
      .cls-1 {
        filter: url(#drop-shadow-1);
      }

      .cls-2 {
        fill: #231f20;
      }

      .cls-3 {
        fill: #2b8fbb;
      }

      .cls-4 {
        fill: #64ac00;
      }

      .cls-5 {
        isolation: isolate;
      }

      .cls-6 {
        fill: #fff;
      }

      .cls-7 {
        mix-blend-mode: soft-light;
      }
    </style>
    <filter id="drop-shadow-1" x="-12.08" y="-12.4" width="784.08" height="124.32" filterUnits="userSpaceOnUse">
      <feOffset dx="0" dy="0"/>
      <feGaussianBlur result="blur" stdDeviation="4"/>
      <feFlood flood-color="#000" flood-opacity=".33"/>
      <feComposite in2="blur" operator="in"/>
      <feComposite in="SourceGraphic"/>
    </filter>
  </defs>
  <g class="cls-5">
    <g id="Layer_1" data-name="Layer 1">
      <g class="cls-1">
        <rect class="cls-6" x="0" y="-.26" width="760" height="100" rx="50" ry="50"/>
        <g>
          <path class="cls-3" d="M144.07,36.53v-8.04c-.96-.24-2.14-.5-3.55-.79-1.41-.29-3.08-.43-4.99-.43-6.03,0-10.58,1.74-13.64,5.21-3.06,3.47-4.6,8.36-4.6,14.68,0,2.87.41,5.49,1.22,7.86.81,2.37,1.97,4.42,3.48,6.14,1.51,1.72,3.31,3.06,5.42,4.02,2.11.96,4.45,1.44,7.04,1.44,1.72,0,3.41-.07,5.06-.22,1.65-.14,2.96-.31,3.91-.5l.29-9.05h7.18l-.29,13.71c-.81.29-1.81.56-2.98.83-1.17.26-2.45.52-3.84.75s-2.84.43-4.34.57-3,.21-4.49.21c-4.5,0-8.41-.66-11.74-1.97-3.33-1.32-6.09-3.12-8.29-5.42-2.2-2.3-3.84-4.99-4.92-8.08-1.08-3.09-1.62-6.43-1.62-10.02,0-3.92.63-7.5,1.9-10.73,1.27-3.23,3.07-6.02,5.42-8.36,2.35-2.34,5.21-4.16,8.58-5.46,3.38-1.29,7.14-1.94,11.31-1.94,3.16,0,6.14.29,8.94.86,2.8.57,5.04,1.2,6.71,1.87v12.85h-7.18Z"/>
          <path class="cls-3" d="M154.05,52.9c0-3.06.44-5.89,1.33-8.47.88-2.58,2.18-4.8,3.88-6.64,1.7-1.84,3.76-3.28,6.17-4.31,2.42-1.03,5.13-1.54,8.15-1.54,3.4,0,6.33.53,8.79,1.58,2.46,1.05,4.49,2.48,6.07,4.27,1.58,1.79,2.75,3.9,3.52,6.32s1.15,4.99,1.15,7.72c0,3.11-.44,5.96-1.33,8.54-.89,2.58-2.18,4.8-3.88,6.64-1.7,1.84-3.76,3.28-6.17,4.31-2.42,1.03-5.13,1.54-8.15,1.54-3.4,0-6.33-.53-8.79-1.58s-4.49-2.48-6.07-4.27c-1.58-1.79-2.75-3.91-3.52-6.35s-1.15-5.03-1.15-7.75ZM162.1,52.61c0,2.2.29,4.16.86,5.89.57,1.72,1.38,3.18,2.4,4.38,1.03,1.2,2.24,2.11,3.63,2.73,1.39.62,2.92.93,4.59.93,1.82,0,3.45-.37,4.88-1.11s2.64-1.75,3.62-3.02c.98-1.27,1.72-2.76,2.23-4.49.5-1.72.75-3.59.75-5.6,0-2.25-.29-4.25-.86-6-.57-1.75-1.38-3.22-2.41-4.42-1.03-1.2-2.25-2.11-3.66-2.73-1.41-.62-2.93-.93-4.56-.93-1.82,0-3.45.37-4.88,1.11-1.44.74-2.65,1.76-3.63,3.05-.98,1.29-1.72,2.81-2.22,4.56-.5,1.75-.75,3.62-.75,5.64Z"/>
          <path class="cls-3" d="M226.35,38.18h-4.67v-5.46h15.44v5.46h-4.45l-.21,33.89h-5.89l-21.04-28h-.14l-.21,22.54h4.67v5.46h-15.44v-5.46h4.45l.21-28.43h-4.67v-5.46h11.63l19.96,26.64h.14l.21-21.18Z"/>
          <path class="cls-3" d="M269.43,38.18h-4.67v-5.46h15.44v5.46h-4.45l-.21,33.89h-5.89l-21.04-28h-.14l-.21,22.54h4.67v5.46h-15.44v-5.46h4.45l.21-28.43h-4.67v-5.46h11.63l19.96,26.64h.14l.21-21.18Z"/>
          <path class="cls-3" d="M281.06,66.61h4.45l.21-28.43h-4.67v-5.46h29.51l.36,11.06h-5.82l-.5-5.6h-11.13l-.07,11.13h11.27v5.46h-11.34l-.07,11.85h11.2l.72-6.32h6.32l-.72,11.77h-29.72v-5.46Z"/>
          <path class="cls-3" d="M348.33,60.15l-.29,10.77c-1.72.67-3.76,1.16-6.1,1.47-2.34.31-4.59.47-6.75.47-3.64,0-6.79-.49-9.44-1.47s-4.85-2.36-6.57-4.13-3-3.86-3.84-6.28c-.84-2.42-1.26-5.04-1.26-7.86,0-3.45.51-6.49,1.54-9.12,1.03-2.63,2.51-4.85,4.45-6.64,1.94-1.79,4.28-3.15,7.04-4.06,2.75-.91,5.83-1.36,9.22-1.36,1.77,0,3.57.16,5.38.47,1.82.31,4,.92,6.53,1.83v10.12h-5.89v-4.95c-1.24-.48-2.42-.79-3.52-.93-1.1-.14-2.08-.21-2.94-.21-2.2,0-4.14.36-5.82,1.08s-3.06,1.71-4.16,2.98c-1.1,1.27-1.94,2.75-2.51,4.45-.57,1.7-.86,3.53-.86,5.49,0,2.58.35,4.77,1.04,6.57.69,1.79,1.67,3.27,2.94,4.42,1.27,1.15,2.76,1.99,4.49,2.51,1.72.53,3.59.79,5.6.79.96,0,1.88-.04,2.77-.11.88-.07,1.8-.23,2.76-.47l.29-5.82h5.89Z"/>
          <path class="cls-3" d="M360.18,66.61h4.45l.22-28.43h-7.97l-.29,5.6h-5.89l.43-11.06h35.18l.43,11.06h-5.89l-.29-5.6h-7.9l-.21,28.43h4.67v5.46h-16.95v-5.46Z"/>
          <path class="cls-3" d="M389.76,66.61h4.45l.21-28.43h-4.67v-5.46h29.51l.36,11.06h-5.82l-.5-5.6h-11.13l-.07,11.13h11.27v5.46h-11.34l-.07,11.85h11.2l.72-6.32h6.32l-.72,11.77h-29.72v-5.46Z"/>
          <path class="cls-3" d="M423.28,66.61h4.45l.21-28.43h-4.67v-5.46h20.18c3.3,0,6.19.49,8.65,1.47s4.5,2.33,6.1,4.06c1.6,1.72,2.8,3.76,3.59,6.1.79,2.35,1.18,4.88,1.18,7.61,0,3.11-.53,5.9-1.58,8.36-1.05,2.47-2.51,4.57-4.38,6.32-1.87,1.75-4.1,3.09-6.71,4.02-2.61.93-5.47,1.4-8.58,1.4h-18.45v-5.46ZM435.56,66.61h5.38c4.5,0,7.88-1.27,10.16-3.81,2.27-2.54,3.41-6.2,3.41-10.98s-1.1-8.2-3.3-10.37c-2.2-2.18-5.24-3.27-9.12-3.27h-6.32l-.22,28.43Z"/>
          <path class="cls-4" d="M501.83,66.18h5.03l.14-16.15h-23.47l-.14,16.15h5.38v5.89h-18.45v-5.89h5.03l.28-38.48h-5.31v-5.89h18.45v5.89h-5.1l-.14,16.01h23.48l.14-16.01h-5.31v-5.89h18.45v5.89h-5.1l-.29,38.48h5.38v5.89h-18.45v-5.89Z"/>
          <path class="cls-4" d="M522.43,66.61h4.45l.21-28.43h-4.67v-5.46h29.51l.36,11.06h-5.81l-.5-5.6h-11.13l-.07,11.13h11.27v5.46h-11.34l-.07,11.85h11.2l.72-6.32h6.32l-.72,11.77h-29.72v-5.46Z"/>
          <path class="cls-4" d="M555.24,66.61h3.95l14.07-34.17h8.69l13.14,34.17h3.95v5.46h-16.8v-5.46h3.95l-2.73-8.33h-13.28l-3.02,8.33h3.95v5.46h-15.87v-5.46ZM577.21,39.18h-.14l-4.95,13.64h9.55l-4.45-13.64Z"/>
          <path class="cls-4" d="M598.75,66.61h4.45l.21-28.43h-4.67v-5.46h16.94v5.46h-4.45l-.21,28.43h11.2l.72-6.32h6.32l-.72,11.77h-29.79v-5.46Z"/>
          <path class="cls-4" d="M633.36,66.61h4.45l.21-28.43h-7.97l-.29,5.6h-5.89l.43-11.06h35.18l.43,11.06h-5.89l-.29-5.6h-7.9l-.21,28.43h4.67v5.46h-16.94v-5.46Z"/>
          <path class="cls-4" d="M662.58,66.61h4.45l.21-28.43h-4.67v-5.46h16.94v5.46h-4.45l-.07,11.13h16.8l.07-11.13h-4.67v-5.46h16.94v5.46h-4.45l-.21,28.43h4.67v5.46h-16.94v-5.46h4.45l.07-11.85h-16.8l-.07,11.85h4.67v5.46h-16.94v-5.46Z"/>
        </g>
        <g>
          <path class="cls-6" d="M50.37,80.52l.28-.16,34.85-20.12.28-.16c3.43-2.04,5.72-5.79,5.72-10.07s-2.3-8.02-5.72-10.07l-.28-.16-34.85-20.12-.28-.16c-1.69-.94-3.64-1.48-5.71-1.48-6.47,0-11.71,5.24-11.71,11.71h0v40.57h0c0,6.47,5.24,11.71,11.71,11.71,2.07,0,4.02-.54,5.71-1.48Z"/>
          <g class="cls-7">
            <path class="cls-2" d="M44.66,20c1.66,0,3.29.43,4.71,1.22l.28.16,34.85,20.12.26.15c2.93,1.75,4.75,4.95,4.75,8.35s-1.82,6.6-4.72,8.33l-.28.16-34.86,20.12-.26.15c-1.44.8-3.07,1.23-4.73,1.23-5.36,0-9.71-4.36-9.71-9.71V29.71c0-5.36,4.36-9.71,9.71-9.71M44.66,18c-6.47,0-11.71,5.24-11.71,11.71h0v40.57h0c0,6.47,5.24,11.71,11.71,11.71,2.07,0,4.02-.54,5.71-1.48l.28-.16,34.85-20.12.28-.16c3.43-2.04,5.72-5.79,5.72-10.07s-2.3-8.02-5.72-10.07l-.28-.16-34.85-20.12-.28-.16c-1.69-.94-3.64-1.48-5.71-1.48h0Z"/>
          </g>
          <path class="cls-6" d="M44.66,18c2.07,0,4.02.54,5.71,1.48l.28.16,34.85,20.12.28.16c3.43,2.04,5.72,5.79,5.72,10.07s-2.3,8.02-5.72,10.07l-.28.16-34.85,20.12-.28.16c-1.69.94-3.64,1.48-5.71,1.48-6.47,0-11.71-5.24-11.71-11.71h0V29.71h0c0-6.47,5.24-11.71,11.71-11.71M44.66,14c-8.66,0-15.71,7.05-15.71,15.71v40.57c0,8.66,7.05,15.71,15.71,15.71,2.68,0,5.33-.69,7.66-1.99h.02s.02-.03.02-.03l.28-.16,34.85-20.12.28-.16h.02s.02-.03.02-.03c4.73-2.82,7.67-8,7.67-13.5s-2.94-10.68-7.67-13.5h-.02s-.02-.03-.02-.03l-.28-.16-34.86-20.12-.28-.16h-.02s-.02-.03-.02-.03c-2.33-1.3-4.98-1.99-7.66-1.99h0Z"/>
        </g>
      </g>
    </g>
  </g>
</svg>